<?xml version="1.0" encoding="UTF-8"?>
<!DOCTYPE svg PUBLIC "-//W3C//DTD SVG 1.1//EN" "http://www.w3.org/Graphics/SVG/1.1/DTD/svg11.dtd">
<!-- Creator: CorelDRAW 2018 (64-Bit) -->
<svg xmlns="http://www.w3.org/2000/svg" xml:space="preserve" width="144px" height="144px" version="1.1" style="shape-rendering:geometricPrecision; text-rendering:geometricPrecision; image-rendering:optimizeQuality; fill-rule:evenodd; clip-rule:evenodd"
viewBox="0 0 195.34 195.34"
 xmlns:xlink="http://www.w3.org/1999/xlink">
 <defs>
  <style type="text/css">
   <![CDATA[
    .fil0 {fill:white}
   ]]>
  </style>
 </defs>
 <g id="Layer_x0020_1">
  <metadata id="CorelCorpID_0Corel-Layer"/>
  <g id="_2553161761520">
   <path class="fil0" d="M10.3 99.96c0,-20.29 4.56,-35.39 15.41,-51.74 3.86,-5.82 11.89,-14.68 17.89,-19.12 7.22,-5.33 8.02,-6.04 16.42,-10.28 8.07,-4.07 22.32,-8.52 34.21,-8.52l7.25 0c15.58,0 29.16,5.71 40.7,11.96 7.04,3.81 14.83,10.71 20.45,16.55 13.59,14.12 22.79,37.31 22.79,57.33 0,24.06 -6.76,40.93 -20.55,58.05 -3.67,4.56 -12.22,12.26 -16.99,15.43 -14.89,9.89 -30.29,15.8 -50.59,15.8 -13.04,0 -26.33,-3.57 -35.36,-7.76 -8.91,-4.13 -18.58,-10.59 -25.6,-17.51l-5.14 -5.54c-4.41,-5 -10.11,-13.97 -12.75,-19.68 -4.12,-8.87 -8.14,-22.21 -8.14,-34.97zm-10.3 -3.05c0,32.81 13.47,54.78 30.8,72.2l9.87 8.07c14.95,10.31 33.79,18.16 53.56,18.16l6.87 0c17.98,0 32.86,-6.2 46.17,-13.36 2.99,-1.61 7.63,-4.86 10.42,-7.13 4.26,-3.46 5.55,-4.45 9.7,-8.6 15.74,-15.75 27.95,-39.42 27.95,-69.73 0,-21.13 -7.65,-41.63 -19.57,-57.5 -4.83,-6.43 -6.12,-7.23 -11.43,-12.6l-9.75 -8.18c-6.84,-4.66 -7.46,-5.15 -15.08,-8.96 -9.13,-4.57 -24.9,-9.28 -38.41,-9.28 -11.3,0 -16.09,0.12 -27.24,2.9 -16.93,4.22 -26.87,10.29 -39.47,20.43 -1.39,1.12 -1.94,1.62 -3.2,2.9 -2.13,2.17 -5.26,4.92 -7.32,7.56 -2.47,3.17 -3.73,4.26 -6.47,8.4 -4.16,6.27 -7.58,12.16 -10.43,19.34 -4.39,11.05 -6.97,23.05 -6.97,35.38z"/>
   <path class="fil0" d="M77.45 132.39c-0.9,0 -1.53,-0.64 -1.53,-1.53l0 -66.38c0,-4.03 6.88,1.17 9.23,2.6l48.22 27.7c6.4,3.73 2.59,4.24 -10.92,12.02 -6.41,3.69 -43.96,25.59 -45,25.59zm-11.83 -67.53l0 65.62c0,8.73 7.24,16.11 18.95,9.79 9.93,-5.35 22.38,-13.08 32.67,-18.83 4.88,-2.72 24.82,-13.88 26.61,-16.13 4.32,-5.44 3.14,-12.32 -2.46,-16.64 -2.45,-1.89 -38.44,-22.77 -45,-26.35 -3.13,-1.71 -5.94,-3.35 -8.95,-5.17 -3.12,-1.87 -6.47,-4.12 -10.37,-4.12 -6.26,0 -11.45,5.55 -11.45,11.83z"/>
  </g>
 </g>
</svg>
