<?xml version="1.0" encoding="UTF-8"?>
<!DOCTYPE svg PUBLIC "-//W3C//DTD SVG 1.1//EN" "http://www.w3.org/Graphics/SVG/1.1/DTD/svg11.dtd">
<!-- Creator: CorelDRAW 2018 (64-Bit) -->
<svg xmlns="http://www.w3.org/2000/svg" xml:space="preserve" width="137px" height="142px" version="1.1" style="shape-rendering:geometricPrecision; text-rendering:geometricPrecision; image-rendering:optimizeQuality; fill-rule:evenodd; clip-rule:evenodd"
viewBox="0 0 22.53 23.36"
 xmlns:xlink="http://www.w3.org/1999/xlink">
 <defs>
  <style type="text/css">
   <![CDATA[
    .fil1 {fill:#3B8056}
    .fil0 {fill:#EBF5EB}
   ]]>
  </style>
 </defs>
 <g id="Содержимое_x0020_PowerClip">
  <metadata id="CorelCorpID_0Corel-Layer"/>
  <rect class="fil0" width="22.53" height="23.36" rx="0.08" ry="4.87"/>
  <g id="_2209616436208">
   <path class="fil1" d="M16.69 10.54c0,0.79 -0.45,1.51 -1.14,1.86 -0.1,0.45 -0.33,0.85 -0.67,1.15 -0.37,0.32 -0.85,0.5 -1.33,0.5 -0.32,0 -0.63,-0.07 -0.91,-0.21 -0.33,0.22 -0.7,0.36 -1.1,0.42l0 -2.58 1.09 -0.92c0.15,-0.12 0.16,-0.34 0.05,-0.48 -0.13,-0.14 -0.34,-0.16 -0.48,-0.04l-0.66 0.55 0 -2.43c0,-0.19 -0.15,-0.34 -0.34,-0.34 -0.19,0 -0.34,0.15 -0.34,0.34l0 1.65 -0.49 -0.39c-0.14,-0.12 -0.36,-0.09 -0.47,0.05 -0.12,0.15 -0.1,0.36 0.05,0.48l0.91 0.73 0 1.05 -1.02 -0.86c-0.15,-0.12 -0.36,-0.1 -0.48,0.04 -0.12,0.14 -0.1,0.36 0.04,0.48l1.46 1.23 0 1.45c-0.62,-0.08 -1.19,-0.39 -1.63,-0.9l-0.19 0.06c-0.6,0.17 -1.23,0.07 -1.74,-0.3 -0.51,-0.37 -0.81,-0.94 -0.83,-1.57l0 0c-0.4,-0.39 -0.63,-0.93 -0.63,-1.5 0,-0.63 0.3,-1.24 0.79,-1.63 0.02,-1.1 0.9,-2 1.99,-2.03 0.26,-0.86 1.05,-1.44 1.94,-1.44 0.62,0 1.21,0.29 1.6,0.79 0.24,-0.1 0.49,-0.15 0.76,-0.15 0.78,0 1.49,0.45 1.83,1.16 0.44,0.09 0.84,0.33 1.14,0.68 0.31,0.38 0.48,0.85 0.48,1.34 0,0.19 -0.02,0.37 -0.07,0.55 0.25,0.36 0.39,0.77 0.39,1.21z"/>
   <path class="fil1" d="M10.6 18.4l-0.77 0c-0.11,0 -0.19,0.09 -0.19,0.19l0 0.29c0,0.11 0.08,0.19 0.19,0.19l0.04 0 0.16 1.52c0.01,0.11 0.1,0.19 0.2,0.19l1.94 0c0.1,0 0.19,-0.08 0.2,-0.19l0.16 -1.52 0.05 0c0.11,0 0.19,-0.08 0.19,-0.19l0 -0.29c0,-0.1 -0.08,-0.19 -0.19,-0.19l-0.88 0 -0.09 0 0 -3.36c0,-0.12 -0.2,-0.23 -0.33,-0.23l-0.15 0c-0.12,0 -0.33,0.11 -0.33,0.23l0 3.36 -0.2 0z"/>
  </g>
 </g>
</svg>
