<?xml version="1.0" encoding="UTF-8"?>
<!DOCTYPE svg PUBLIC "-//W3C//DTD SVG 1.1//EN" "http://www.w3.org/Graphics/SVG/1.1/DTD/svg11.dtd">
<!-- Creator: CorelDRAW 2018 (64-Bit) -->
<svg xmlns="http://www.w3.org/2000/svg" xml:space="preserve" width="146px" height="152px" version="1.1" style="shape-rendering:geometricPrecision; text-rendering:geometricPrecision; image-rendering:optimizeQuality; fill-rule:evenodd; clip-rule:evenodd"
viewBox="0 0 25.57 26.51"
 xmlns:xlink="http://www.w3.org/1999/xlink">
 <defs>
  <style type="text/css">
   <![CDATA[
    .fil1 {fill:#3B8056}
    .fil0 {fill:#EBF5EB}
   ]]>
  </style>
 </defs>
 <g id="Содержимое_x0020_PowerClip">
  <metadata id="CorelCorpID_0Corel-Layer"/>
  <rect class="fil0" width="25.57" height="26.51" rx="0.09" ry="5.52"/>
  <g id="_2209751042000">
   <path class="fil1" d="M12.79 10.42c-2.1,0 -3.81,1.71 -3.81,3.81 0,0.85 0.27,1.65 0.78,2.32 0.49,0.65 1.2,1.13 1.98,1.35 0.05,0.01 0.1,0.02 0.14,0.02 0.2,0 0.33,-0.14 0.33,-0.35l0 -2.19c0,-0.2 -0.16,-0.33 -0.25,-0.38l-0.81 -0.4c-0.14,-0.07 -0.24,-0.18 -0.32,-0.34 -0.06,-0.15 -0.07,-0.3 -0.01,-0.42 0.08,-0.16 0.26,-0.26 0.48,-0.26 0.1,0 0.2,0.02 0.3,0.07l0.17 0.09c0.03,0.02 0.1,0.06 0.19,0.06 0.11,0 0.25,-0.08 0.25,-0.3l0 -0.28c0,-0.36 0.23,-0.65 0.51,-0.65 0.29,0 0.52,0.29 0.52,0.65l0 1.13c0,0.31 0.19,0.34 0.25,0.34 0.09,0 0.17,-0.07 0.19,-0.09l0.44 -0.42 0.01 0c0.12,-0.13 0.33,-0.21 0.52,-0.21 0.13,0 0.25,0.04 0.34,0.13 0.19,0.19 0.14,0.56 -0.12,0.83l-1.46 1.45c-0.04,0.03 -0.17,0.15 -0.17,0.32l0 0.91c0,0.23 0.17,0.34 0.33,0.34 0.03,0 0.06,0 0.08,-0.01 0.82,-0.19 1.56,-0.66 2.1,-1.33 0.54,-0.67 0.84,-1.52 0.84,-2.38 0,-2.1 -1.7,-3.81 -3.8,-3.81z"/>
   <path class="fil1" d="M15.21 19.63l-1.83 0 -0.02 -0.43c0,-0.11 -0.04,-0.19 -0.08,-0.23 -0.06,-0.05 -0.14,-0.09 -0.22,-0.09 -0.01,0 -0.02,0.01 -0.03,0.01 -0.18,0.02 -0.38,0.02 -0.57,0 -0.02,0 -0.03,0 -0.04,0 -0.08,0 -0.26,0.03 -0.32,0.28l0 0.02 -0.02 0.44 -1.84 0c-0.19,0 -0.35,0.15 -0.35,0.34l0 0.52c0,0.19 0.16,0.35 0.35,0.35l0.07 0 0.29 2.75c0.02,0.18 0.17,0.32 0.36,0.32l3.51 0c0.18,0 0.34,-0.14 0.36,-0.32l0.29 -2.75 0.09 0c0.19,0 0.35,-0.16 0.35,-0.35l0 -0.52c0,-0.19 -0.16,-0.34 -0.35,-0.34z"/>
  </g>
 </g>
</svg>
