<?xml version="1.0" encoding="UTF-8"?>
<!DOCTYPE svg PUBLIC "-//W3C//DTD SVG 1.1//EN" "http://www.w3.org/Graphics/SVG/1.1/DTD/svg11.dtd">
<!-- Creator: CorelDRAW 2018 (64-Bit) -->
<svg xmlns="http://www.w3.org/2000/svg" xml:space="preserve" width="0.690587in" height="0.531169in" version="1.1" style="shape-rendering:geometricPrecision; text-rendering:geometricPrecision; image-rendering:optimizeQuality; fill-rule:evenodd; clip-rule:evenodd"
viewBox="0 0 68.18 52.44"
 xmlns:xlink="http://www.w3.org/1999/xlink">
 <defs>
  <style type="text/css">
   <![CDATA[
    .fil0 {fill:#6CA081}
    .fil1 {fill:#6CA081;fill-rule:nonzero}
   ]]>
  </style>
 </defs>
 <g id="Layer_x0020_1">
  <metadata id="CorelCorpID_0Corel-Layer"/>
  <g id="_2809840794640">
   <path class="fil0" d="M64.79 39.3c-0.28,0.11 -0.4,0.11 -0.68,0.06 -0.28,-0.06 -0.23,0.09 -0.45,0.14 -0.2,0.08 -0.09,-0.14 -0.45,-0.23 -0.34,-0.09 -0.43,-0.09 -0.71,-0.06 -0.28,0.06 -0.17,-0.03 -0.45,-0.14 -0.31,-0.11 -0.25,0.06 -0.54,0.03 -0.28,0 -0.37,-0.26 -0.62,-0.2 -0.26,0.06 -0.43,0.14 -0.57,0.03 -0.17,-0.11 -0.34,-0.03 -0.17,-0.34 0.2,-0.31 0.08,-0.46 0.17,-0.68 0.06,-0.14 0.11,-0.26 0.14,-0.37 0.03,0 0.06,0.03 0.11,0.03 0.28,0.17 0.2,0.08 0.43,0.34 0.2,0.26 0.54,0.71 0.74,0.54 0.2,-0.17 -0.08,-0.34 0.11,-0.43 0.17,-0.09 0.28,0.11 0.4,-0.06 0.11,-0.17 0.14,-0.14 0.31,-0.2 0.17,-0.06 0.11,-0.23 0.37,0.11 0.23,0.34 0.45,0.65 0.68,0.43 0.2,-0.2 0.31,0.26 0.68,0.48 0.37,0.2 0.48,0.03 0.74,0.34 -0.03,0.03 -0.06,0.08 -0.23,0.17zm-5.65 -15.54c-0.28,0.11 -0.34,-0.06 -0.51,0.14 -0.17,0.17 -0.4,0.11 -0.6,0 -0.23,-0.11 -0.34,0.03 -0.51,-0.09 -0.2,-0.14 0,-0.23 -0.2,-0.31 -0.17,-0.09 -0.43,-0.17 -0.43,-0.17 -0.37,-0.11 0.4,-0.06 0.6,-0.06 0.2,-0.03 0.34,0.26 0.6,0.46 0.26,0.17 0.2,-0.14 0.45,-0.26 0.26,-0.09 0.37,0.11 0.34,-0.11 -0.03,-0.23 0,-0.37 0.23,-0.2 0.23,0.14 0.37,0.14 0.4,0.26 0.06,0.11 -0.09,0.23 -0.37,0.34zm-1.48 -2.84c0.08,0.14 0.45,0.14 0.68,0.03 0.26,-0.14 0.26,0.09 0.57,0.26 0.31,0.17 0.4,-0.09 0.48,0.14 0.11,0.2 -0.14,0.2 -0.48,0.34 -0.31,0.11 -0.28,0.26 -0.48,0.03 -0.2,-0.23 -0.37,-0.23 -0.68,-0.46 -0.51,-0.31 -0.2,-0.51 -0.08,-0.34zm-3.24 13.41l-0.59 -1.01c0.64,0.35 1.25,0.27 1.34,0.44 0.09,0.18 0.22,0.65 0.31,0.86 0.09,0.2 -1.06,-0.28 -1.06,-0.28zm-0.62 -18.1c-0.22,0 -0.97,-0.13 -1.37,0 -0.4,0.13 -0.71,-0.4 -1.32,-0.57 -0.62,-0.18 -0.31,0.35 -0.31,0.35l-0.66 -0.27c0,0 -0.04,-0.71 0,-1.19 0.04,-0.48 -0.96,-0.88 -0.96,-0.88 0.47,0.18 0.56,-0.18 1.22,0.66 0.66,0.84 1.15,1.37 1.77,1.5 0.62,0.13 1.85,0.4 1.63,0.4zm-4.83 -8.47c-0.17,-0.17 -0.45,-0.28 -0.48,-0.45 -0.06,-0.17 -0.03,-0.54 -0.03,-0.54 0,0 0.08,-0.06 0.2,0.06 0.11,0.09 0.48,0.45 0.51,0.65 0.03,0.2 0,0.45 -0.2,0.28zm-4.97 8.49l-0.27 0.69 -0.62 -0.22 -0.97 0.22c0,0 -0.13,0.62 -0.73,0.53 -0.6,-0.09 -0.29,-0.79 -0.29,-0.79 1.24,-0.49 1.94,-0.14 2.07,-0.42 0.13,-0.29 1.5,-0.2 1.5,-0.2l-0.71 0.2zm0.12 18.62c-0.06,0.06 -0.17,0.14 -0.23,0.23 -0.17,0.2 -0.23,0.31 -0.43,0.37 -0.2,0.06 -0.14,0.26 -0.4,0.34 -0.23,0.11 -0.57,0.11 -0.31,-0.09 0.26,-0.23 0.43,-0.26 0.79,-0.6 0.26,-0.23 0.48,-0.4 0.63,-0.51l-0.06 0.26zm-3.39 -9.5c-0.35,0.09 0.13,-0.53 -0.71,0.26 -0.84,0.79 -0.4,1.32 -0.84,0.79 -0.44,-0.53 -1.41,-0.57 -1.41,-0.57 0,0 -0.82,0.56 -1.09,0.79 -0.28,0.23 -1.56,0.89 -1.56,0.89l0.66 -0.66 0.89 -0.88c0.61,-0.09 1.09,-0.75 1.54,-0.79 0.44,-0.04 0.66,0.13 0.97,0 0.31,-0.13 1.68,-0.84 1.68,-0.84 0,0 0.4,0.13 0.53,0.53 0.13,0.4 -0.31,0.4 -0.66,0.49zm-4.14 10.21c-0.06,0.06 -0.09,0.06 -0.14,0.06 0.08,-0.09 0.17,-0.17 0.23,-0.23 0,0.06 0,0.11 -0.08,0.17zm-3.95 2.05c-0.09,0.06 -0.17,0.11 -0.25,0.14 0.06,-0.06 0.14,-0.14 0.25,-0.2 0.06,-0.06 0.11,-0.09 0.14,-0.11 0,0.06 -0.06,0.11 -0.14,0.17zm35.34 5.63c-0.2,-0.11 -0.08,-0.17 -0.14,-0.37 -0.06,-0.2 -0.11,-0.17 -0.23,-0.34 -0.14,-0.17 0.11,-0.28 -0.11,-0.43 -0.23,-0.14 -0.2,-0.14 -0.4,-0.17 -0.23,-0.03 -0.03,-0.2 -0.34,-0.17 -0.31,0.06 -0.28,0.03 -0.2,-0.2 0.11,-0.26 0.2,-0.06 0.28,-0.2 0.09,-0.17 0.23,-0.09 0.34,-0.31 0.09,-0.23 -0.06,-0.14 -0.09,-0.37 -0.03,-0.2 -0.11,-0.2 -0.28,-0.26 -0.2,-0.06 -0.34,-0.37 -0.57,-0.26 -0.26,0.11 -0.4,0.14 -0.68,0.11 -0.26,-0.03 -0.11,-0.2 -0.37,-0.14 -0.25,0.06 -0.34,0 -0.34,-0.14 0,-0.17 0.23,-0.03 0.57,-0.03 0.34,0 0.37,-0.06 0.4,-0.34 0.03,-0.28 0.2,-0.37 -0.03,-0.48 -0.17,-0.11 -0.26,0.03 -0.43,0.03 0.03,-0.09 0.03,-0.14 0.03,-0.23 0,-0.23 -0.2,-0.48 0.26,-0.37 0.45,0.14 0.34,-0.2 0.57,-0.17 0.23,0.03 0.43,0 0.43,-0.17 0,-0.2 -0.17,-0.28 -0.54,-0.51 -0.34,-0.26 0.06,-0.31 -0.11,-0.51 -0.2,-0.17 0.06,-0.4 -0.34,-0.6 -0.43,-0.2 -0.03,-0.43 -0.57,-0.51 -0.51,-0.06 -0.34,-0.37 -0.77,-0.45 -0.43,-0.11 -0.06,-0.45 -0.6,-0.45 -0.51,-0.03 -0.91,0.03 -1.02,-0.2 -0.11,-0.26 0.17,-0.54 -0.4,-0.68 -0.6,-0.14 -0.08,-0.45 -0.62,-0.48 -0.54,-0.03 -0.74,-0.14 -0.74,-0.31 0.03,-0.17 0.26,-0.28 0.09,-0.43 -0.2,-0.11 -0.31,-0.23 -0.14,-0.4 0.17,-0.17 0.31,-0.2 0.43,-0.43 0.14,-0.23 -0.09,-0.2 0.11,-0.28 0.2,-0.08 0.26,0.03 0.37,-0.11 0.09,-0.14 0.06,-0.03 -0.17,-0.37 -0.23,-0.31 -0.17,-0.68 0.11,-0.4 0.28,0.26 0.48,0.63 0.62,0.54 0.11,-0.06 0.11,-0.03 0.34,-0.06 0.26,-0.03 0.31,0.26 0.74,0.43 0.4,0.17 0.34,-0.2 0.06,-0.65 -0.31,-0.43 0.2,-0.23 0.57,-0.03 0.37,0.23 0.68,0.23 0.68,0 0,-0.2 0.34,0.09 0.62,0.11 0.26,0.06 0.26,0 0.45,0.14 0.2,0.14 0.4,0 0.4,-0.11 0,-0.14 0.08,-0.14 0.28,-0.2 0.2,-0.06 0.14,-0.31 -0.17,-0.34 -0.31,-0.03 -0.34,0.03 -0.48,-0.17 -0.17,-0.2 -0.23,-0.14 -0.43,-0.26 -0.17,-0.09 -0.34,-0.34 -0.28,-0.43 0.08,-0.09 0.37,0.31 0.57,0.26 0.17,-0.09 0.11,-0.31 -0.08,-0.51 -0.2,-0.23 0.4,-0.2 0.28,-0.43 -0.14,-0.23 -0.37,0.14 -0.54,-0.11 -0.17,-0.28 -0.23,-0.17 -0.82,0.03 -0.6,0.2 -0.43,-0.14 -0.77,0.03 -0.37,0.14 -0.17,-0.17 -0.45,-0.11 -0.26,0.06 -0.03,-0.4 -0.34,-0.31 -0.34,0.08 -0.03,-0.28 -0.37,-0.2 -0.37,0.09 -0.11,-0.23 -0.03,-0.4 0.06,-0.17 -0.06,-0.08 -0.17,-0.23 -0.11,-0.14 -0.09,-0.2 -0.28,-0.26 -0.2,-0.08 -0.11,-0.31 -0.34,-0.26 -0.2,0.06 -0.11,0.23 -0.34,0.31 -0.23,0.06 -0.23,-0.06 -0.48,-0.11 -0.28,-0.06 -0.37,0.11 -0.54,0 -0.17,-0.11 0.31,-0.23 0.48,-0.43 0.2,-0.23 0,-0.17 -0.11,-0.34 -0.08,-0.2 -0.28,-0.11 -0.23,-0.37 0.03,-0.26 0.11,-0.54 0.31,-0.54 0.23,-0.03 0.4,0.11 0.62,0.46 0.23,0.34 0.48,0.37 0.45,0.17 0,-0.23 -0.14,-0.23 -0.03,-0.46 0.09,-0.23 -0.2,-0.23 -0.51,-0.45 -0.31,-0.2 -0.03,-0.4 0.31,-0.26 0.34,0.14 0.77,0.4 0.94,0.28 0.17,-0.11 0.23,-0.03 0.48,0.03 0.28,0.03 0.4,0 0.34,-0.17 -0.06,-0.2 -0.06,-0.2 -0.03,-0.34 0.06,-0.17 -0.31,-0.14 -0.31,-0.31 0,-0.17 0.4,-0.06 0.51,-0.26 0.14,-0.23 -0.06,-0.23 -0.23,-0.23 -0.17,0 -0.17,-0.2 -0.26,-0.34 -0.09,-0.11 -0.2,0.11 -0.37,0 -0.2,-0.11 -0.26,0.06 -0.43,0.03 -0.2,0 -0.43,-0.09 -0.31,-0.26 0.08,-0.17 -0.03,-0.23 0.06,-0.37 0.06,-0.14 0.03,-0.43 0.23,-0.4 0.23,0.03 0.23,-0.09 0.4,-0.09 0.2,0 0.37,0.23 0.43,0.06 0.06,-0.14 0.11,-0.03 0.26,-0.17 0.11,-0.14 -0.14,-0.14 -0.2,-0.26 -0.06,-0.14 -0.11,-0.43 -0.34,-0.37 -0.2,0.06 -0.31,0.06 -0.48,-0.03 -0.14,-0.11 -0.34,-0.06 -0.65,-0.11 -0.28,-0.08 -0.4,-0.06 -0.2,-0.2 0.2,-0.14 0.06,-0.43 -0.28,-0.51 -0.34,-0.06 -0.37,-0.23 -0.57,-0.37 -0.2,-0.14 -0.54,-0.09 -0.45,-0.31 0.06,-0.23 0.45,-0.06 0.31,-0.4 -0.17,-0.34 -0.11,-0.2 0.28,-0.48 0.4,-0.31 0.17,-0.51 0.03,-0.63 -0.11,-0.14 -0.28,-0.03 -0.37,-0.11 -0.06,-0.11 -0.11,0.06 -0.31,-0.09 -0.2,-0.11 -0.11,-0.08 -0.57,-0.14 -0.43,-0.08 -0.31,-0.08 -0.31,-0.26 0.03,-0.17 -0.14,-0.06 -0.23,-0.26 -0.11,-0.2 -0.14,0 -0.34,-0.08 -0.2,-0.11 -0.2,-0.14 -0.45,0 -0.26,0.17 -0.31,0.23 -0.54,0.14 -0.23,-0.11 -0.17,-0.23 -0.43,-0.06 -0.23,0.17 -0.43,0.17 -0.4,-0.06 0,-0.2 -0.09,-0.23 -0.26,-0.37 -0.17,-0.14 0.11,-0.31 -0.14,-0.37 -0.26,-0.08 0,-0.31 -0.46,-0.31 -0.45,0 0.03,-0.2 -0.6,-0.17 -0.65,0.06 -0.31,-0.14 -0.63,-0.2 -0.28,-0.06 0.17,-0.17 0.06,-0.48 -0.11,-0.34 -0.26,-0.08 -0.45,-0.43 -0.2,-0.37 0.25,-0.28 0.06,-0.57 -0.2,-0.31 0.14,-0.37 0.06,-0.65 -0.09,-0.28 0.51,0.06 0.34,-0.34 -0.14,-0.4 -0.34,-0.77 0.2,-0.91 0.51,-0.14 0.65,-0.14 0.62,-0.4 0,-0.26 -0.25,-0.28 -0.6,-0.23 -0.31,0.03 -0.25,-0.51 -0.54,-0.54 -0.26,0 -0.6,0.11 -0.57,-0.23 0.03,-0.31 -0.2,-0.28 -0.43,-0.43 -0.23,-0.17 -0.17,-0.31 -0.31,-0.4 -0.14,-0.09 -0.17,-0.17 -0.23,-0.37 -0.03,-0.17 0.28,-0.2 0.54,-0.28 0.26,-0.09 -0.2,-0.26 -0.14,-0.48 0.03,-0.2 0.23,-0.31 0.09,-0.54 -0.11,-0.2 0.11,-0.31 0,-0.46 -0.14,-0.11 -0.31,-0.14 -0.57,-0.23 -0.26,-0.08 -0.14,-0.23 -0.17,-0.54 -0.06,-0.34 0.03,-0.45 -0.37,-0.71 -0.4,-0.23 -0.31,-0.57 -0.88,-0.65 -0.54,-0.06 -0.82,0 -0.77,-0.14 0.03,-0.17 0.34,-0.06 0.43,-0.17 0.08,-0.14 0.11,0 0.25,-0.34 0.11,-0.37 0.09,-0.26 -0.08,-0.51 -0.17,-0.28 0.08,-0.37 -0.11,-0.54 -0.2,-0.17 -0.08,-0.37 -0.51,-0.28 -0.45,0.09 -0.45,-0.31 -0.23,-0.45 0.11,-0.14 0.28,-0.4 0.06,-0.51 -0.2,-0.14 -0.14,-0.34 -0.26,-0.48 -0.14,-0.14 -0.34,-0.2 -0.4,-0.34 -0.06,-0.11 0.14,-0.06 0.26,-0.17 0.09,-0.14 0.17,-0.08 0.26,-0.14 0.06,-0.09 0.14,-0.2 0,-0.34 -0.17,-0.14 -0.23,-0.34 -0.4,-0.48 -0.14,-0.14 0.11,-0.31 -0.08,-0.48 -0.2,-0.17 -0.28,-0.17 -0.34,-0.45 -0.06,-0.28 -0.28,-0.06 -0.34,-0.28 -0.06,-0.26 0.09,-0.26 -0.14,-0.43 -0.23,-0.2 -0.17,-0.34 -0.45,-0.37 -0.28,-0.06 -0.09,-0.23 -0.37,-0.26 -0.28,-0.03 -0.28,0.09 -0.57,0.23 -0.28,0.14 -0.31,0.2 -0.48,0.45 -0.17,0.26 -0.26,0.17 -0.4,0.37 -0.14,0.23 0.11,0.23 -0.17,0.4 -0.28,0.2 0.03,0.2 -0.03,0.37 -0.06,0.17 -0.34,0.14 -0.34,0.28 0,0.14 0.31,0.14 0.17,0.28 -0.11,0.11 -0.34,-0.06 -0.51,0.06 -0.2,0.11 -0.06,0.17 -0.06,0.34 0,0.17 -0.14,0.31 0.23,0.34 0.34,0 0.17,0.11 0,0.31 -0.14,0.2 0.14,0.28 -0.23,0.48 -0.34,0.17 -0.2,0.34 -0.54,0.25 -0.34,-0.06 -0.11,0.23 -0.45,0.26 -0.31,0.03 -0.06,0.31 -0.17,0.4 -0.09,0.11 -0.17,0.4 0,0.4 0.2,0 0.2,0.08 0.31,0.17 0.11,0.11 0.28,-0.17 0.51,-0.23 0.23,-0.06 0.17,0.17 0.31,0.14 0.14,-0.03 0.26,-0.11 0.17,0.06 -0.08,0.2 -0.37,0.23 -0.6,0.23 -0.23,0.03 -0.23,0.31 -0.51,0.34 -0.31,0.03 -0.37,-0.31 -0.51,-0.17 -0.17,0.14 -0.2,-0.03 -0.4,0.09 -0.17,0.09 0.03,0.34 -0.11,0.43 -0.14,0.11 -0.03,0.26 -0.2,0.28 -0.14,0.03 -0.28,-0.03 -0.37,0.11 -0.11,0.11 -0.26,0.2 -0.48,0.23 -0.23,0.03 -0.28,0.26 -0.17,0.43 0.11,0.17 0.28,0.09 0.4,0.26 0.14,0.17 0.45,0.03 0.45,0.14 0.03,0.11 0.08,0.09 0.23,0.2 0.17,0.11 0.06,0.26 0.28,0.34 0.23,0.09 0.34,-0.26 0.51,-0.2 0.2,0.06 0.31,-0.14 0.4,-0.06 0.06,0.06 0.2,0.17 0.48,0.11 0.26,-0.06 0.45,0.11 0.28,0.14 -0.2,0.03 -0.31,0.06 -0.43,0.2 -0.14,0.14 -0.37,0.2 -0.62,0.06 -0.28,-0.14 -0.37,0.06 -0.65,0.09 -0.28,0.03 -0.62,-0.11 -0.96,-0.2 -0.34,-0.11 -0.45,0.06 -0.8,0 -0.31,-0.08 -0.28,0.09 -0.6,0.11 -0.31,0.03 -0.4,0.03 -0.34,0.26 0.03,0.23 0.2,0.14 0.34,0.34 0.14,0.2 0.28,0.23 0.48,0.37 0.17,0.14 -0.09,0.37 -0.28,0.26 -0.23,-0.11 -0.26,0.11 -0.54,0.06 -0.28,-0.03 -0.45,0.06 -0.37,0.28 0.11,0.23 0.48,0.2 0.4,0.37 -0.06,0.17 -0.14,0.11 -0.48,0.17 -0.34,0.03 -0.31,0.2 -0.57,0.17 -0.28,-0.03 -0.06,0.2 -0.26,0.26 -0.23,0.06 -0.23,0.23 0.09,0.4 0.34,0.17 0.17,0.14 0.31,0.31 0.11,0.14 0.11,0.11 0.65,0.06 0.51,-0.06 0.2,0.2 -0.11,0.48 -0.31,0.31 -0.11,0.26 -0.51,0.23 -0.4,0 -0.26,0.34 -0.74,0.23 -0.48,-0.11 -0.65,-0.14 -0.65,0.26 -0.03,0.37 0.2,0.17 0.34,0.43 0.11,0.23 0.31,0.03 0.28,0.37 -0.03,0.31 0.28,0.09 0.2,0.45 -0.02,0.12 -0.05,0.2 -0.07,0.27 -0.14,0.03 -0.31,0.06 -0.5,0.1 -0.66,0.14 -0.84,-0.04 -1.15,0.32 -0.31,0.35 -0.49,0.81 -0.49,0.81 0,0 0.57,0.25 1.41,0.12 0.84,-0.13 0.93,-0.76 1.06,-0.12 0.13,0.64 -0.35,0.56 -0.66,0.64 -0.31,0.09 -0.62,-0.04 -0.79,0.35 -0.18,0.4 -0.44,-0.04 -0.18,0.4 0.26,0.44 0.39,0.15 0.62,0.48 0.18,0.25 0.1,0.2 0.09,0.43 -0.02,0.04 -0.01,0.09 0.01,0.13 0,0.05 0.01,0.12 0.02,0.19 -0.09,0.11 -0.28,0.17 -0.74,0.03 -0.45,-0.14 -0.54,0.06 -0.99,-0.11 -0.45,-0.14 -0.31,0.11 -0.65,0.26 -0.31,0.17 0.11,0.26 -0.37,0.45 -0.48,0.23 -0.45,0.2 -0.54,0.54 -0.06,0.34 0.17,0.34 -0.25,0.31 -0.43,0 0.03,0.31 -0.6,0.26 -0.65,-0.06 -0.88,0.11 -0.68,0.34 0.23,0.26 0.26,0.06 0.11,0.34 -0.14,0.26 0.11,0.2 0.57,0.17 0.45,-0.03 0.74,-0.03 0.34,0.14 -0.43,0.17 -0.43,0 -0.77,0.17 -0.34,0.14 -0.26,0.26 -0.54,0.2 -0.28,-0.06 -0.31,-0.23 -0.43,0.06 -0.11,0.28 -0.14,0.14 -0.2,0.45 -0.06,0.31 0.14,0.28 0.48,0.28 0.31,0 0.14,0.26 0.51,0.11 0.37,-0.11 0.31,-0.06 0.51,-0.03 0.23,0 0.34,-0.34 0.6,-0.37 0.26,-0.03 0.06,0.28 0.26,0.23 0.2,-0.06 0.2,0.14 0.03,0.34 -0.2,0.23 -0.2,0.28 -0.17,0.48 0.06,0.2 0.03,0.26 -0.2,0.31 -0.26,0.03 -0.23,-0.06 -0.65,-0.17 -0.43,-0.11 -0.51,0.03 -0.43,0.28 0.06,0.26 -0.08,0.28 0.17,0.37 0.28,0.11 0.17,0.11 0.28,0.34 0.14,0.26 0.43,0.28 0.08,0.4 -0.31,0.11 -0.11,0.14 -0.31,0.34 -0.2,0.2 -0.34,0.11 -0.48,0.09 -0.17,-0.03 -0.34,0 -0.37,0.2 -0.03,0.2 -0.14,0.2 -0.25,0.31 -0.09,0.14 0.03,0.37 0.11,0.6 0.08,0.23 0,0.37 0.17,0.68 0.17,0.31 0,0.26 -0.14,0.34 -0.17,0.11 -0.31,0.03 -0.6,-0.03 -0.26,-0.06 -0.31,0.2 -0.6,0.23 -0.28,0 -0.26,-0.14 -0.54,-0.06 -0.31,0.11 -0.2,0.2 -0.48,0.17 -0.28,-0.06 -0.34,-0.06 -0.71,0.06 -0.34,0.08 -0.23,0.28 -0.45,0.23 -0.2,-0.09 -0.17,-0.2 -0.45,-0.14 -0.26,0.06 -0.37,0.03 -0.65,-0.08 -0.31,-0.11 -0.14,-0.26 -0.45,-0.14 -0.31,0.11 -0.37,-0.14 -0.6,0 -0.2,0.14 -0.03,0.2 0,0.48 0.03,0.28 0.03,0.34 0.4,0.34 0.34,0.03 0.57,-0.11 0.57,0.03 -0.03,0.14 -0.09,0.23 -0.34,0.17 -0.26,-0.06 -0.11,0.08 -0.4,0.11 -0.26,0.03 -0.4,0 -0.65,-0.11 -0.26,-0.09 -0.4,0.2 -0.57,0.28 -0.2,0.06 -0.28,0.06 -0.31,0.26 -0.03,0.2 -0.14,0.11 -0.06,0.34 0.08,0.23 0.25,0.17 0.31,0.31 0.08,0.14 0.2,-0.03 0.28,0.2 0.11,0.23 0.11,0.26 -0.2,0.23 -0.28,-0.06 -0.11,0.11 -0.31,0.17 -0.23,0.03 -0.17,0.03 -0.4,0.14 -0.23,0.14 0,0.26 -0.11,0.45 -0.14,0.17 -0.2,0.14 -0.26,0.31 -0.06,0.2 0.06,0.26 -0.11,0.37 -0.2,0.11 -0.2,0.17 -0.17,0.31 0.03,0.17 0.14,0.03 0.28,0.06 0.17,0.03 0.11,0.17 0.31,0.14 0.23,-0.06 0.43,-0.14 0.37,0.06 -0.09,0.23 -0.17,0.2 -0.11,0.34 0.06,0.17 0.14,0.23 0.71,0.14 0.54,-0.08 0.71,0.11 0.48,0.26 -0.23,0.14 -0.77,0.23 -0.65,0.46 0.11,0.2 0.4,0.03 0.62,0.06 0.23,0.03 0.17,0.17 0.6,0.09 0.43,-0.09 0.51,-0.11 0.6,0.06 0.11,0.2 0.26,0.17 0.54,0.11 0.25,-0.03 0.08,0.14 0.28,0.23 0.23,0.09 0.54,-0.11 0.48,0.09 -0.06,0.23 -0.06,0.37 -0.43,0.43 -0.4,0.03 -0.2,0.23 -0.57,0.48 -0.37,0.28 -0.51,0.48 -0.06,0.57 0.43,0.09 0.2,0.11 0.37,0.28 0.17,0.14 0.68,-0.26 0.88,-0.17 0.17,0.09 0.03,0.26 -0.51,0.48 -0.54,0.2 -0.51,0.03 -1.02,0.26 -0.48,0.23 -0.28,0.26 -0.57,0.31 -0.28,0.03 -0.14,0.23 -0.57,0.31 -0.45,0.06 -0.37,0.17 -0.28,0.43 0.08,0.26 0.08,0.34 -0.26,0.6 -0.34,0.28 -0.28,0.2 -0.28,0.43 0,0.2 -0.34,0.31 -0.25,0.43 0.08,0.11 0.14,0.11 0.4,0.03 0.23,-0.08 0.28,-0.31 0.6,-0.51 0.34,-0.2 0.4,0.06 0.28,0.23 -0.11,0.17 -0.03,0.17 0.06,0.34 0.09,0.2 -0.23,0.43 -0.03,0.45 0.2,0.06 0.26,0.03 0.4,-0.23 0.11,-0.26 0.28,-0.2 0.51,-0.34 0.26,-0.14 -0.03,-0.26 0.34,-0.48 0.37,-0.23 0.31,0.17 0.65,-0.2 0.14,-0.17 0.28,-0.31 0.45,-0.43 -0.03,0.14 0.11,0.17 0.34,0.11 0.11,0 0.2,-0.03 0.25,-0.06 -0.03,0.08 -0.03,0.17 -0.23,0.34 -0.37,0.34 -0.09,0.45 0.14,0.37 0.26,-0.06 0.17,0.14 0.4,0.06 0.2,-0.06 0.34,-0.26 0.54,-0.26 0.09,0 0.11,0 0.14,-0.03 0.09,0.23 -0.06,0.23 -0.06,0.43 0,0.23 0.23,0.2 0.48,-0.14 0.23,-0.34 0.4,-0.48 0.6,-0.48 0.23,0 0.28,0.31 0.34,0.54 0.03,0.26 -0.14,0.2 -0.26,0.37 -0.08,0.2 -0.28,0.14 -0.11,0.34 0.2,0.23 0.68,0.34 0.51,0.45 -0.17,0.11 -0.28,-0.08 -0.54,-0.03 -0.28,0.06 -0.25,0.2 -0.48,0.11 -0.23,-0.06 -0.14,-0.23 -0.37,-0.28 -0.23,-0.09 -0.11,0.17 -0.31,0.23 -0.2,0.09 -0.2,0.11 -0.28,0.26 -0.11,0.14 -0.23,0.06 -0.17,0.23 0.06,0.2 0.31,0.51 -0.03,0.43 -0.37,-0.09 -0.03,0.26 -0.37,0.2 -0.34,-0.09 -0.08,0.34 -0.37,0.28 -0.26,-0.06 -0.09,0.28 -0.43,0.11 -0.34,-0.14 -0.2,0.17 -0.77,-0.03 -0.6,-0.17 -0.68,-0.28 -0.82,-0.03 -0.17,0.28 -0.4,-0.11 -0.54,0.14 -0.14,0.23 0.45,0.2 0.26,0.4 -0.17,0.2 -0.26,0.43 -0.06,0.51 0.17,0.08 0.48,-0.34 0.54,-0.23 0.08,0.09 -0.09,0.34 -0.28,0.43 -0.2,0.09 -0.23,0.06 -0.4,0.26 -0.17,0.17 -0.17,0.11 -0.48,0.17 -0.31,0.03 -0.37,0.26 -0.2,0.31 0.2,0.09 0.28,0.09 0.28,0.2 0,0.14 0.2,0.28 0.4,0.14 0.23,-0.14 0.2,-0.11 0.48,-0.14 0.28,-0.03 0.6,-0.31 0.6,-0.11 0,0.2 0.34,0.2 0.71,0 0.34,-0.23 0.85,-0.4 0.57,0.03 -0.28,0.43 -0.37,0.82 0.06,0.65 0.4,-0.17 0.48,-0.48 0.71,-0.43 0.25,0.03 0.23,-0.03 0.37,0.06 0.14,0.09 0.34,-0.28 0.6,-0.57 0.28,-0.28 0.37,0.08 0.14,0.43 -0.23,0.31 -0.28,0.23 -0.17,0.37 0.11,0.14 0.14,0 0.34,0.11 0.2,0.08 -0.03,0.06 0.11,0.28 0.14,0.23 0.28,0.23 0.45,0.4 0.14,0.2 0.03,0.28 -0.14,0.43 -0.2,0.11 0.06,0.26 0.06,0.43 0,0.17 -0.2,0.28 -0.74,0.31 -0.54,0.03 -0.03,0.34 -0.6,0.48 -0.6,0.11 -0.28,0.43 -0.4,0.65 -0.14,0.26 -0.54,0.2 -1.05,0.2 -0.51,0.03 -0.17,0.37 -0.6,0.45 -0.43,0.08 -0.25,0.4 -0.77,0.48 -0.51,0.08 -0.14,0.31 -0.54,0.51 -0.43,0.2 -0.17,0.4 -0.34,0.6 -0.2,0.2 0.23,0.26 -0.14,0.51 -0.37,0.23 -0.54,0.31 -0.54,0.48 0,0.2 0.2,0.2 0.43,0.17 0.25,0 0.14,0.34 0.6,0.2 0.45,-0.14 0.25,0.11 0.23,0.37 0,0.23 0.11,0.51 0.4,0.17 0.25,-0.34 0.37,-0.14 0.74,-0.37 0.37,-0.2 0.51,-0.65 0.71,-0.46 0.2,0.2 0.43,-0.08 0.68,-0.43 0.25,-0.37 0.17,-0.17 0.37,-0.11 0.17,0.06 0.17,0.03 0.28,0.17 0.11,0.17 0.26,0 0.43,0.08 0.17,0.09 -0.09,0.26 0.11,0.43 0.2,0.17 0.54,-0.28 0.74,-0.54 0.2,-0.26 0.11,-0.17 0.43,-0.34 0.31,-0.17 0.34,0 0.48,0.17 0.11,0.14 0.23,-0.06 0.4,0.03 0.17,0.09 0.25,0.14 0.45,-0.03 0.17,-0.17 0.26,-0.14 0.4,-0.06 0.11,0.06 0.4,-0.06 0.54,-0.17 0.11,-0.14 0.26,-0.11 0.31,0.06 0.06,0.14 0.23,0.06 0.26,0.17 0.03,0.14 -0.17,0.31 0.03,0.45 0.2,0.11 0.23,-0.11 0.43,-0.11 0.2,0.03 0.43,-0.28 0.51,-0.14 0.09,0.14 0.03,0.28 -0.11,0.51 -0.11,0.23 -0.08,0.45 0.23,0.4 0.31,-0.06 0.43,0.06 0.71,-0.26 0.28,-0.34 0.23,-0.51 0.57,-0.46 0.34,0.03 0.43,-0.48 0.68,-0.71 0.23,-0.2 0.48,-0.06 0.4,0.23 -0.06,0.31 -0.2,0.17 -0.43,0.51 -0.23,0.31 -0.31,0.51 0.14,0.26 0.43,-0.26 0.14,-0.14 0.54,-0.4 0.4,-0.23 0.23,-0.31 0.4,-0.6 0.17,-0.28 0,-0.37 0.23,-0.57 0.23,-0.17 -0.11,-0.51 0.23,-0.57 0.34,-0.06 0.17,-0.45 0.48,-0.48 0.28,0 0.57,-0.14 0.88,-0.37 0.31,-0.26 0.43,-0.03 0.28,0.26 -0.14,0.31 0.11,0.34 0.28,0.06 0.17,-0.28 0.4,-0.68 0.43,-0.34 0.03,0.34 0.17,0.14 0.25,0.43 0.06,0.26 0.17,0.09 0.4,0.48 0.23,0.4 0.45,0.31 0.4,0.03 -0.06,-0.28 0.17,-0.34 0.08,-0.65 -0.08,-0.28 -0.08,-0.26 -0.03,-0.48 0.09,-0.2 0.11,-0.2 -0.11,-0.51 -0.23,-0.34 0.06,-0.2 0,-0.57 -0.06,-0.34 -0.2,-0.48 0.06,-0.99 0.25,-0.51 1.31,-0.28 1.11,1.42 -0.2,1.73 -0.54,3.78 -0.74,5.06 -0.23,1.25 1.5,1.02 1.5,1.02 0,0 1.87,-0.06 2.81,0 0.91,0.03 1.28,-0.11 0.97,-1.79 -0.34,-1.71 -0.97,-3.38 -0.97,-4.58 0,-1.19 0.37,-2.05 0.37,-2.05 0,0 0.26,0.2 0.45,0.34 0.23,0.14 0.25,-0.11 0.28,-0.28 0.03,-0.14 0.14,-0.28 0.54,0 0.4,0.28 -0.37,0.71 -0.06,0.74 0.31,0 0.68,0.37 0.85,0.68 0.14,0.28 0.2,0.08 0.37,0.31 0.17,0.23 0.26,-0.11 0.51,0.06 0.23,0.14 0.57,0.68 0.74,1.05 0.17,0.4 0.4,0.48 0.62,0.45 0.23,-0.03 0.45,0.09 0.71,0.28 0.23,0.2 0.48,0.09 0.82,0.51 0.34,0.43 0.31,0.57 0.48,0.48 0.17,-0.09 0.17,0.23 0.48,0.28 0.31,0.03 0.4,0.11 0.79,0.17 0.4,0.08 0.09,-0.06 -0.23,-0.31 -0.34,-0.28 0.03,-0.14 -0.06,-0.37 -0.08,-0.23 -0.31,-0.31 -0.17,-0.51 0.11,-0.2 0.34,0.2 0.51,0.08 0.17,-0.11 -0.11,-0.28 0.06,-0.43 0.2,-0.11 0.2,-0.11 0,-0.4 -0.2,-0.31 0.2,-0.14 0.51,0.26 0.34,0.37 0.37,0.54 0.48,0.37 0.11,-0.17 0.2,-0.26 0.6,0.03 0.43,0.28 0.51,0.71 0.74,0.8 0.2,0.11 0.26,0.03 0.51,0.31 0.28,0.28 0.28,-0.06 0.71,0.14 0.43,0.23 0.26,-0.08 0.77,0.26 0.51,0.37 0.4,0.57 0.62,0.57 0.23,-0.03 0.34,0.2 0.57,0.26 0.2,0.06 0.14,-0.11 0.37,-0.06 0.25,0.06 0.51,-0.03 0.14,-0.37 -0.37,-0.37 -0.06,-0.31 -0.51,-0.8 -0.48,-0.48 -0.43,-0.51 0.11,-0.14 0.54,0.37 0.91,0.54 1.25,0.94 0.31,0.4 0.28,0 0.65,0.2 0.37,0.23 0.09,0.37 0.31,0.51 0.25,0.14 0.4,0.06 0.54,0.34 0.11,0.26 0.2,0.26 0.37,0.23 0.2,-0.06 -0.08,-0.25 -0.03,-0.45 0.09,-0.17 0.2,-0.17 0.09,-0.34 -0.14,-0.2 -0.06,-0.43 0.25,-0.23 0.34,0.2 0.37,0.4 0.63,0.48 0.25,0.11 0.28,0.11 0.37,0 0.08,-0.11 -0.26,-0.26 -0.26,-0.45 0,-0.2 0.09,-0.11 -0.28,-0.4 -0.34,-0.28 -0.34,-0.34 -0.26,-0.6 0.08,-0.28 0.17,-0.37 -0.26,-0.45 -0.45,-0.06 -0.28,-0.28 -0.6,-0.31 -0.28,-0.03 -0.06,-0.06 -0.57,-0.28 -0.48,-0.23 -0.45,-0.09 -1.02,-0.28 -0.54,-0.2 -0.68,-0.4 -0.48,-0.48 0.17,-0.06 0.68,0.31 0.85,0.17 0.17,-0.14 -0.06,-0.2 0.4,-0.26 0.45,-0.08 0.28,-0.28 -0.09,-0.57 -0.37,-0.28 -0.17,-0.46 -0.54,-0.51 -0.4,-0.03 -0.37,-0.17 -0.45,-0.4 -0.06,-0.23 0.28,0 0.48,-0.09 0.2,-0.08 0.06,-0.26 0.31,-0.23 0.26,0.03 0.43,0.09 0.51,-0.11 0.11,-0.2 0.17,-0.17 0.6,-0.06 0.43,0.09 0.37,-0.09 0.62,-0.09 0.23,-0.03 0.51,0.14 0.62,-0.09 0.09,-0.2 -0.43,-0.28 -0.65,-0.43 -0.23,-0.14 -0.09,-0.37 0.48,-0.28 0.54,0.09 0.62,0.03 0.68,-0.11 0.06,-0.14 -0.03,-0.14 -0.09,-0.34 -0.09,-0.2 0.11,-0.11 0.34,-0.09 0.23,0.06 0.14,-0.08 0.31,-0.14 0.17,-0.03 0.28,0.11 0.31,-0.03 0.03,-0.14 0.03,-0.2 -0.17,-0.31z"/>
   <path class="fil0" d="M8.12 38.63c0.14,0.31 0.26,0.63 0.37,0.97l0 -0.02c0,0.01 0.01,0.01 0.01,0.02l0 -3.55 -1.33 0 -1.15 -0.01c0,0 0.01,0 0.01,0.01l-0.01 0c0.06,0.03 0.11,0.07 0.16,0.1 0.79,0.55 1.44,1.4 1.94,2.48z"/>
   <path class="fil0" d="M8.39 44.24c0,-3.46 -1.02,-6.31 -2.66,-7.44 -0.76,-0.52 -1.62,-0.64 -2.43,-0.33 -2.27,0.87 -3.3,4.64 -3.3,7.77 0,3.13 1.03,6.9 3.3,7.77 0.81,0.31 1.67,0.19 2.43,-0.33 1.64,-1.13 2.66,-3.98 2.66,-7.44zm-3.56 -6.13c0.98,0.68 1.97,2.83 1.97,6.13 0,3.3 -0.99,5.45 -1.97,6.13 -0.43,0.3 -0.75,0.23 -0.96,0.16 -1.1,-0.42 -2.28,-2.94 -2.28,-6.28 0,-3.34 1.18,-5.86 2.28,-6.28 0.2,-0.08 0.52,-0.15 0.96,0.15z"/>
   <path class="fil0" d="M9.14 45.57c-0.23,3.15 -1.3,5.63 -2.96,6.77 -0.04,0.03 -0.08,0.05 -0.12,0.08l-0.04 0.02 0.01 0c-0,0 -0.01,0.01 -0.01,0.01l9.62 0c2.82,0 5.11,-2.66 5.11,-7.19l0 -41.24 -11.57 0 0 40.22c0,0.45 -0.02,0.89 -0.05,1.32zm10 -39.95l0.02 0 0 39.43c0,3.89 -1.86,5.81 -3.52,5.81l-6.23 0c0.72,-1.42 1.17,-3.18 1.32,-5.17 0.03,-0.47 0.05,-0.95 0.05,-1.44l0 -38.63 8.37 0z"/>
   <path class="fil0" d="M13.3 0.62c-0.1,0.11 -0.19,0.24 -0.24,0.37 -0.05,0.12 -0.07,0.24 -0.07,0.37l-3.78 0 -0.01 0 0 0 -0.01 0 0 1.97 11.57 0 0 -1.97 -3.94 0 -0 0c0,-0.13 -0.02,-0.25 -0.07,-0.37 -0.05,-0.13 -0.14,-0.26 -0.24,-0.37 -0.34,-0.37 -0.93,-0.62 -1.6,-0.62 -0.67,0 -1.26,0.24 -1.6,0.62z"/>
   <polygon class="fil0" points="14.33,36.7 14.34,36.7 14.34,36.07 11.79,36.07 11.79,36.7 14.32,36.7 "/>
   <polygon class="fil0" points="14.33,18.77 14.34,18.77 14.34,18.14 11.79,18.14 11.79,18.77 14.32,18.77 "/>
   <rect class="fil0" transform="matrix(2.53184E-15 -0.0955969 0.0955969 2.53184E-15 11.8342 52.3908)" width="6.62" height="37.85"/>
   <rect class="fil0" transform="matrix(2.53184E-15 -0.0955969 0.0955969 2.53184E-15 11.8342 34.4623)" width="6.62" height="37.85"/>
   <rect class="fil0" transform="matrix(2.53184E-15 -0.0955969 0.0955969 2.53184E-15 11.8342 16.5338)" width="6.62" height="37.85"/>
   <polygon class="fil0" points="11.83,38.94 15.45,38.94 15.45,38.31 11.86,38.31 11.84,38.31 11.84,38.31 11.83,38.31 "/>
   <polygon class="fil0" points="11.83,21.02 15.45,21.02 15.45,20.39 11.86,20.39 11.84,20.39 11.84,20.39 11.83,20.39 "/>
   <polygon class="fil0" points="11.79,41.19 14.32,41.19 14.33,41.19 14.33,41.19 14.34,41.19 14.34,40.55 11.79,40.55 "/>
   <polygon class="fil0" points="11.79,23.26 14.32,23.26 14.33,23.26 14.33,23.26 14.34,23.26 14.34,22.62 11.79,22.62 "/>
   <polygon class="fil0" points="15.45,42.8 11.86,42.8 11.84,42.8 11.84,42.8 11.83,42.8 11.83,43.43 15.43,43.43 15.44,43.43 15.44,43.43 15.45,43.43 "/>
   <polygon class="fil0" points="15.45,24.87 11.86,24.87 11.84,24.87 11.84,24.87 11.83,24.87 11.83,25.5 15.43,25.5 15.44,25.5 15.44,25.5 15.45,25.5 "/>
   <polygon class="fil0" points="15.45,6.94 11.86,6.94 11.84,6.94 11.84,6.94 11.83,6.94 11.83,7.57 15.43,7.57 15.44,7.57 15.44,7.57 15.45,7.57 "/>
   <polygon class="fil0" points="14.33,50.15 14.34,50.15 14.34,49.52 11.81,49.52 11.8,49.52 11.8,49.52 11.79,49.52 11.79,50.15 14.32,50.15 14.33,50.15 "/>
   <polygon class="fil0" points="14.33,32.22 14.34,32.22 14.34,31.59 11.81,31.59 11.8,31.59 11.8,31.59 11.79,31.59 11.79,32.22 14.32,32.22 14.33,32.22 "/>
   <polygon class="fil0" points="14.33,14.29 14.34,14.29 14.34,13.66 11.81,13.66 11.8,13.66 11.8,13.66 11.79,13.66 11.79,14.29 14.32,14.29 14.33,14.29 "/>
   <polygon class="fil0" points="15.44,47.91 15.45,47.91 15.45,47.28 11.83,47.28 11.83,47.91 15.42,47.91 15.44,47.91 "/>
   <polygon class="fil0" points="15.44,29.98 15.45,29.98 15.45,29.35 11.83,29.35 11.83,29.98 15.42,29.98 15.44,29.98 "/>
   <polygon class="fil0" points="15.44,12.05 15.45,12.05 15.45,11.42 11.83,11.42 11.83,12.05 15.42,12.05 15.44,12.05 "/>
   <rect class="fil0" transform="matrix(2.53184E-15 -0.0955969 0.0955969 2.53184E-15 11.8342 43.4251)" width="6.59" height="37.85"/>
   <rect class="fil0" transform="matrix(2.53184E-15 -0.0955969 0.0955969 2.53184E-15 11.7925 45.6671)" width="6.62" height="26.68"/>
   <rect class="fil0" transform="matrix(2.53184E-15 -0.0955969 0.0955969 2.53184E-15 11.7925 27.7386)" width="6.62" height="26.68"/>
   <rect class="fil0" transform="matrix(2.53184E-15 -0.0955969 0.0955969 2.53184E-15 11.7925 9.81012)" width="6.62" height="26.68"/>
   <path class="fil0" d="M3.36 44.24c0,1.17 0.43,2.17 0.98,2.23 0.59,0.07 1.1,-0.93 1.1,-2.23 0,-1.31 -0.51,-2.3 -1.1,-2.23 -0.56,0.07 -0.98,1.06 -0.98,2.23z"/>
   <path class="fil1" d="M18.95 7.41c0,0.22 -0.08,0.4 -0.24,0.53 -0.19,0.15 -0.51,0.23 -0.95,0.23 -0.44,0 -0.76,-0.08 -0.95,-0.23 -0.16,-0.13 -0.24,-0.3 -0.24,-0.53 0,-0.23 0.09,-0.41 0.26,-0.55 0.17,-0.14 0.48,-0.21 0.93,-0.21 0.44,0 0.75,0.08 0.95,0.23 0.16,0.13 0.24,0.3 0.24,0.53zm-0.37 0c0,-0.05 -0.02,-0.1 -0.05,-0.14 -0.03,-0.04 -0.1,-0.07 -0.18,-0.1 -0.12,-0.03 -0.31,-0.05 -0.58,-0.05 -0.27,0 -0.46,0.01 -0.56,0.04 -0.1,0.03 -0.17,0.06 -0.2,0.1 -0.03,0.04 -0.05,0.09 -0.05,0.14 0,0.05 0.02,0.1 0.05,0.14 0.03,0.04 0.1,0.07 0.18,0.1 0.11,0.03 0.31,0.05 0.58,0.05 0.27,0 0.46,-0.01 0.56,-0.04 0.1,-0.03 0.17,-0.06 0.2,-0.1 0.03,-0.04 0.05,-0.09 0.05,-0.14z"/>
   <path id="1" class="fil1" d="M16.62 12.25l0 -0.44 1.68 0c-0.15,-0.16 -0.27,-0.35 -0.34,-0.57l0.41 0c0.04,0.12 0.11,0.24 0.22,0.38 0.11,0.14 0.23,0.23 0.37,0.28l0 0.36 -2.33 0z"/>
   <path id="2" class="fil1" d="M17.03 17.08l-0.41 0 0 -1.56c0.16,0.02 0.3,0.07 0.44,0.15 0.14,0.08 0.33,0.25 0.56,0.5 0.19,0.2 0.31,0.32 0.38,0.37 0.09,0.06 0.18,0.09 0.27,0.09 0.1,0 0.18,-0.03 0.23,-0.08 0.05,-0.05 0.08,-0.13 0.08,-0.22 0,-0.09 -0.03,-0.17 -0.08,-0.22 -0.06,-0.05 -0.15,-0.09 -0.28,-0.09l0.04 -0.44c0.25,0.03 0.42,0.11 0.53,0.25 0.11,0.14 0.16,0.31 0.16,0.52 0,0.23 -0.06,0.41 -0.19,0.54 -0.12,0.13 -0.28,0.2 -0.46,0.2 -0.1,0 -0.2,-0.02 -0.3,-0.06 -0.09,-0.04 -0.19,-0.1 -0.3,-0.18 -0.07,-0.05 -0.17,-0.15 -0.3,-0.29 -0.13,-0.14 -0.21,-0.23 -0.26,-0.27 -0.04,-0.04 -0.08,-0.07 -0.12,-0.09l0 0.88z"/>
   <path id="3" class="fil1" d="M17.23 20.02l0.05 0.43c-0.11,0.01 -0.19,0.05 -0.25,0.11 -0.06,0.06 -0.09,0.13 -0.09,0.22 0,0.09 0.03,0.17 0.1,0.23 0.07,0.06 0.16,0.09 0.28,0.09 0.11,0 0.2,-0.03 0.27,-0.09 0.07,-0.06 0.1,-0.13 0.1,-0.22 0,-0.06 -0.01,-0.12 -0.03,-0.2l0.36 0.05c-0,0.12 0.02,0.21 0.08,0.27 0.05,0.06 0.13,0.09 0.22,0.09 0.08,0 0.14,-0.02 0.19,-0.07 0.05,-0.05 0.07,-0.11 0.07,-0.19 0,-0.08 -0.03,-0.14 -0.08,-0.19 -0.05,-0.05 -0.13,-0.09 -0.23,-0.1l0.07 -0.41c0.14,0.03 0.25,0.07 0.34,0.13 0.08,0.06 0.15,0.14 0.2,0.24 0.05,0.1 0.07,0.22 0.07,0.35 0,0.22 -0.07,0.39 -0.21,0.53 -0.11,0.11 -0.24,0.16 -0.39,0.16 -0.2,0 -0.37,-0.11 -0.49,-0.33 -0.03,0.13 -0.09,0.24 -0.19,0.32 -0.1,0.08 -0.22,0.12 -0.36,0.12 -0.2,0 -0.38,-0.07 -0.52,-0.22 -0.14,-0.15 -0.22,-0.33 -0.22,-0.55 0,-0.21 0.06,-0.38 0.18,-0.52 0.12,-0.14 0.28,-0.22 0.48,-0.24z"/>
   <path id="4" class="fil1" d="M16.62 25.36l0.47 0 0 -0.95 0.39 0 1.48 1 0 0.37 -1.47 0 0 0.29 -0.39 0 0 -0.29 -0.47 0 0 -0.43zm0.86 0l0.79 0 -0.79 -0.53 0 0.53z"/>
   <path id="5" class="fil1" d="M17.21 28.96l0.05 0.44c-0.1,0.01 -0.18,0.05 -0.24,0.11 -0.06,0.06 -0.09,0.13 -0.09,0.22 0,0.09 0.04,0.17 0.11,0.24 0.08,0.06 0.19,0.1 0.34,0.1 0.14,0 0.25,-0.03 0.32,-0.1 0.07,-0.06 0.11,-0.15 0.11,-0.25 0,-0.13 -0.06,-0.24 -0.17,-0.34l0.05 -0.36 1.21 0.23 0 1.18 -0.41 0 0 -0.84 -0.39 -0.07c0.05,0.1 0.07,0.2 0.07,0.3 0,0.2 -0.07,0.36 -0.22,0.5 -0.14,0.14 -0.33,0.21 -0.56,0.21 -0.19,0 -0.36,-0.06 -0.51,-0.17 -0.21,-0.15 -0.31,-0.36 -0.31,-0.63 0,-0.21 0.06,-0.39 0.17,-0.52 0.12,-0.14 0.27,-0.22 0.47,-0.24z"/>
   <path id="6" class="fil1" d="M18.37 34.92l-0.05 -0.43c0.09,-0.01 0.15,-0.04 0.2,-0.08 0.04,-0.04 0.06,-0.1 0.06,-0.17 0,-0.09 -0.04,-0.17 -0.13,-0.24 -0.08,-0.06 -0.26,-0.11 -0.53,-0.12 0.13,0.11 0.2,0.25 0.2,0.41 0,0.19 -0.07,0.34 -0.21,0.48 -0.14,0.13 -0.32,0.2 -0.55,0.2 -0.24,0 -0.43,-0.07 -0.57,-0.21 -0.14,-0.14 -0.22,-0.32 -0.22,-0.54 0,-0.23 0.09,-0.43 0.27,-0.58 0.18,-0.15 0.48,-0.23 0.9,-0.23 0.43,0 0.73,0.08 0.92,0.24 0.19,0.16 0.28,0.36 0.28,0.61 0,0.18 -0.05,0.32 -0.15,0.44 -0.1,0.12 -0.24,0.19 -0.43,0.22zm-0.97 -1.01c-0.14,0 -0.26,0.03 -0.34,0.1 -0.08,0.07 -0.12,0.14 -0.12,0.23 0,0.08 0.03,0.15 0.1,0.21 0.06,0.05 0.17,0.08 0.32,0.08 0.15,0 0.26,-0.03 0.33,-0.09 0.07,-0.06 0.11,-0.13 0.11,-0.22 0,-0.09 -0.03,-0.16 -0.1,-0.22 -0.07,-0.06 -0.17,-0.09 -0.3,-0.09z"/>
   <path id="7" class="fil1" d="M18.5 37.87l0.41 0 0 1.52 -0.32 0c-0.12,-0.13 -0.3,-0.25 -0.53,-0.38 -0.23,-0.13 -0.48,-0.23 -0.74,-0.3 -0.26,-0.07 -0.49,-0.1 -0.7,-0.1l0 -0.43c0.32,0.01 0.65,0.07 0.98,0.2 0.33,0.12 0.63,0.29 0.9,0.5l0 -1.01z"/>
   <path id="8" class="fil1" d="M17.87 42.71c0.05,-0.11 0.12,-0.2 0.2,-0.25 0.08,-0.05 0.18,-0.08 0.28,-0.08 0.17,0 0.32,0.06 0.43,0.18 0.11,0.12 0.17,0.29 0.17,0.51 0,0.22 -0.06,0.39 -0.17,0.51 -0.11,0.12 -0.26,0.18 -0.43,0.18 -0.11,0 -0.2,-0.03 -0.29,-0.08 -0.08,-0.06 -0.15,-0.13 -0.19,-0.24 -0.05,0.13 -0.13,0.23 -0.23,0.29 -0.1,0.07 -0.21,0.1 -0.34,0.1 -0.21,0 -0.39,-0.07 -0.52,-0.2 -0.13,-0.14 -0.2,-0.32 -0.2,-0.54 0,-0.21 0.06,-0.39 0.17,-0.53 0.13,-0.17 0.31,-0.25 0.54,-0.25 0.13,0 0.24,0.03 0.35,0.09 0.11,0.06 0.19,0.16 0.24,0.29zm0.45 0.09c-0.09,0 -0.16,0.02 -0.21,0.07 -0.05,0.05 -0.07,0.12 -0.07,0.2 0,0.08 0.03,0.15 0.08,0.2 0.05,0.05 0.12,0.08 0.21,0.08 0.08,0 0.15,-0.02 0.2,-0.07 0.05,-0.05 0.08,-0.12 0.08,-0.2 0,-0.09 -0.03,-0.15 -0.08,-0.2 -0.05,-0.05 -0.12,-0.08 -0.2,-0.08zm-1 -0.04c-0.12,0 -0.22,0.03 -0.29,0.09 -0.07,0.06 -0.1,0.14 -0.1,0.23 0,0.09 0.03,0.17 0.1,0.23 0.07,0.06 0.16,0.09 0.29,0.09 0.11,0 0.2,-0.03 0.26,-0.09 0.07,-0.06 0.1,-0.14 0.1,-0.23 0,-0.11 -0.04,-0.19 -0.11,-0.24 -0.08,-0.05 -0.16,-0.08 -0.25,-0.08z"/>
   <path id="9" class="fil1" d="M17.16 46.81l0.05 0.43c-0.09,0.01 -0.15,0.04 -0.2,0.08 -0.04,0.04 -0.06,0.1 -0.06,0.17 0,0.09 0.04,0.17 0.13,0.23 0.08,0.06 0.26,0.1 0.53,0.12 -0.13,-0.11 -0.19,-0.25 -0.19,-0.42 0,-0.18 0.07,-0.34 0.21,-0.47 0.14,-0.13 0.32,-0.2 0.55,-0.2 0.24,0 0.43,0.07 0.57,0.21 0.14,0.14 0.22,0.32 0.22,0.53 0,0.24 -0.09,0.43 -0.27,0.58 -0.18,0.15 -0.48,0.23 -0.9,0.23 -0.42,0 -0.73,-0.08 -0.92,-0.23 -0.19,-0.16 -0.28,-0.36 -0.28,-0.61 0,-0.18 0.05,-0.33 0.15,-0.44 0.1,-0.11 0.24,-0.18 0.44,-0.21zm0.97 1c0.14,0 0.25,-0.03 0.33,-0.1 0.08,-0.07 0.12,-0.14 0.12,-0.23 0,-0.08 -0.03,-0.15 -0.1,-0.2 -0.06,-0.05 -0.17,-0.08 -0.32,-0.08 -0.15,0 -0.26,0.03 -0.33,0.09 -0.07,0.06 -0.1,0.13 -0.1,0.22 0,0.09 0.03,0.16 0.1,0.22 0.07,0.06 0.17,0.09 0.3,0.09z"/>
  </g>
 </g>
</svg>
