<?xml version="1.0" encoding="UTF-8"?>
<!DOCTYPE svg PUBLIC "-//W3C//DTD SVG 1.1//EN" "http://www.w3.org/Graphics/SVG/1.1/DTD/svg11.dtd">
<!-- Creator: CorelDRAW 2018 (64-Bit) -->
<svg xmlns="http://www.w3.org/2000/svg" xml:space="preserve" width="47px" height="72px" version="1.1" style="shape-rendering:geometricPrecision; text-rendering:geometricPrecision; image-rendering:optimizeQuality; fill-rule:evenodd; clip-rule:evenodd"
viewBox="0 0 3.55 5.39"
 xmlns:xlink="http://www.w3.org/1999/xlink">
 <defs>
  <style type="text/css">
   <![CDATA[
    .fil0 {fill:#6CA081}
   ]]>
  </style>
 </defs>
 <g id="Layer_x0020_1">
  <metadata id="CorelCorpID_0Corel-Layer"/>
  <path class="fil0" d="M1.27 4.36l-0.38 0c-0.04,0 -0.08,0.03 -0.08,0.08l0 0.12c0,0.05 0.04,0.09 0.08,0.09l0.02 0 0.07 0.66c0,0.04 0.04,0.08 0.08,0.08l0.85 0c0.04,0 0.08,-0.04 0.08,-0.08l0.07 -0.66 0.03 0c0.04,0 0.08,-0.04 0.08,-0.09l0 -0.12c0,-0.05 -0.04,-0.08 -0.08,-0.08l-0.43 0c-0.02,-1.6 -0.22,-1.07 0.76,-2.16 0.12,0.09 0.27,0.15 0.43,0.15 0.39,0 0.7,-0.31 0.7,-0.7 0,-0.28 -0.17,-0.52 -0.41,-0.63 -0.01,-0.34 -0.3,-0.62 -0.64,-0.62 -0.03,0 -0.05,0.01 -0.08,0.01 -0.18,-0.25 -0.47,-0.41 -0.8,-0.41 -0.35,0 -0.65,0.18 -0.83,0.44 -0.3,0.03 -0.54,0.28 -0.54,0.58 0,0.12 0.04,0.23 0.1,0.33 -0.2,0.09 -0.35,0.29 -0.35,0.53 0,0.32 0.26,0.58 0.58,0.58 0.12,0 0.22,-0.03 0.31,-0.09 0.58,0.89 0.4,0.76 0.38,1.99zm-0.11 -2.48c0.06,0.04 0.13,0.06 0.2,0.08l0 0.43 -0.22 -0.34c0.01,-0.06 0.02,-0.11 0.02,-0.17zm0.58 0.11c0.16,-0.02 0.31,-0.08 0.44,-0.17 0,0.02 0.01,0.04 0.02,0.06l-0.46 0.52 0 -0.41z"/>
 </g>
</svg>
