<?xml version="1.0" encoding="UTF-8"?>
<!DOCTYPE svg PUBLIC "-//W3C//DTD SVG 1.1//EN" "http://www.w3.org/Graphics/SVG/1.1/DTD/svg11.dtd">
<!-- Creator: CorelDRAW 2018 (64-Bit) -->
<svg xmlns="http://www.w3.org/2000/svg" xml:space="preserve" width="25px" height="44px" version="1.1" style="shape-rendering:geometricPrecision; text-rendering:geometricPrecision; image-rendering:optimizeQuality; fill-rule:evenodd; clip-rule:evenodd"
viewBox="0 0 2.11 3.74"
 xmlns:xlink="http://www.w3.org/1999/xlink">
 <defs>
  <style type="text/css">
   <![CDATA[
    .fil0 {fill:#6CA081}
   ]]>
  </style>
 </defs>
 <g id="Layer_x0020_1">
  <metadata id="CorelCorpID_0Corel-Layer"/>
  <path class="fil0" d="M1.06 0c-0.59,0 -1.06,0.47 -1.06,1.06 0,0.23 0.07,0.45 0.22,0.64 0.13,0.18 0.33,0.31 0.55,0.37 0.01,0.01 0.02,0.01 0.03,0.01 0.06,0 0.1,-0.04 0.1,-0.1l0 -0.6c0,-0.06 -0.05,-0.1 -0.07,-0.11l-0.23 -0.11c-0.04,-0.02 -0.06,-0.05 -0.09,-0.1 -0.01,-0.04 -0.01,-0.08 0,-0.11 0.02,-0.05 0.07,-0.07 0.13,-0.07 0.03,0 0.06,0 0.09,0.02l0.04 0.02c0.01,0.01 0.03,0.02 0.06,0.02 0.03,0 0.07,-0.03 0.07,-0.09l0 -0.07c0,-0.1 0.06,-0.18 0.14,-0.18 0.08,0 0.14,0.08 0.14,0.18l0 0.31c0,0.09 0.05,0.09 0.07,0.09 0.03,0 0.05,-0.01 0.06,-0.02l0.12 -0.12 0 0c0.03,-0.03 0.09,-0.06 0.14,-0.06 0.04,0 0.07,0.02 0.1,0.04 0.05,0.05 0.04,0.16 -0.03,0.23l-0.41 0.4c-0.01,0.01 -0.05,0.04 -0.05,0.09l0 0.25c0,0.07 0.05,0.1 0.09,0.1 0.01,0 0.02,0 0.03,0 0.22,-0.06 0.43,-0.19 0.58,-0.37 0.15,-0.19 0.23,-0.42 0.23,-0.66 0,-0.59 -0.47,-1.06 -1.05,-1.06z"/>
  <path class="fil0" d="M1.73 2.55l-0.51 0 0 -0.11c0,-0.04 -0.02,-0.06 -0.03,-0.07 -0.01,-0.01 -0.03,-0.02 -0.06,-0.02 0,0 0,0 0,0 -0.06,0 -0.11,0 -0.16,0 -0.01,0 -0.01,0 -0.02,0 -0.02,0 -0.07,0.01 -0.08,0.08l0 0 -0.01 0.12 -0.51 0c-0.05,0 -0.1,0.05 -0.1,0.1l0 0.14c0,0.06 0.05,0.1 0.1,0.1l0.02 0 0.08 0.76c0,0.05 0.05,0.09 0.1,0.09l0.97 0c0.05,0 0.1,-0.04 0.1,-0.09l0.08 -0.76 0.03 0c0.05,0 0.1,-0.04 0.1,-0.1l0 -0.14c0,-0.05 -0.05,-0.1 -0.1,-0.1z"/>
 </g>
</svg>
