<?xml version="1.0" encoding="UTF-8"?>
<!DOCTYPE svg PUBLIC "-//W3C//DTD SVG 1.1//EN" "http://www.w3.org/Graphics/SVG/1.1/DTD/svg11.dtd">
<!-- Creator: CorelDRAW 2018 (64-Bit) -->
<svg xmlns="http://www.w3.org/2000/svg" xml:space="preserve" width="23px" height="39px" version="1.1" style="shape-rendering:geometricPrecision; text-rendering:geometricPrecision; image-rendering:optimizeQuality; fill-rule:evenodd; clip-rule:evenodd"
viewBox="0 0 9.97 17.18"
 xmlns:xlink="http://www.w3.org/1999/xlink">
 <defs>
  <style type="text/css">
   <![CDATA[
    .fil0 {fill:#6CA081}
   ]]>
  </style>
 </defs>
 <g id="Layer_x0020_1">
  <metadata id="CorelCorpID_0Corel-Layer"/>
  <path class="fil0" d="M7.16 9.77l-2.16 0 0 -0.98c1.73,-0.14 3.09,-1.59 3.09,-3.36 0,-0.16 -0.13,-0.28 -0.29,-0.28 -1.16,0 -2.19,0.59 -2.8,1.49l0 -1.15c1.73,-0.15 3.09,-1.6 3.09,-3.36 0,-0.16 -0.13,-0.29 -0.29,-0.29 -1.16,0 -2.19,0.59 -2.8,1.49l0 -3.04c0,-0.16 -0.13,-0.29 -0.28,-0.29 -0.16,0 -0.29,0.13 -0.29,0.29l0 0.85 -0.32 -0.3c-0.12,-0.1 -0.3,-0.1 -0.4,0.02 -0.11,0.11 -0.11,0.29 0.01,0.4l0.71 0.66 0 3.21c-0.52,-0.69 -1.34,-1.13 -2.26,-1.13 -0.16,0 -0.29,0.13 -0.29,0.29 0,1.46 1.12,2.67 2.55,2.81l0 2.67 -1.81 0c-0.01,0 -0.02,0 -0.03,0l4.6 0c-0.01,0 -0.02,0 -0.03,0l0 0zm0.34 -7.34c-0.14,1.3 -1.18,2.34 -2.48,2.48 0.14,-1.3 1.18,-2.34 2.48,-2.48zm0 3.3c-0.14,1.31 -1.18,2.35 -2.48,2.49 0.14,-1.31 1.18,-2.34 2.48,-2.49zm-5.02 -1.14c0.48,0.07 0.93,0.29 1.29,0.64 0.35,0.36 0.57,0.81 0.64,1.29 -1,-0.13 -1.8,-0.93 -1.93,-1.93z"/>
  <path class="fil0" d="M9.37 9.64c-3.73,0 -4.98,0 -8.76,0 -0.33,0 -0.61,0.28 -0.61,0.61l0 0.91c0,0.34 0.28,0.61 0.61,0.61l0.13 0 0.5 4.84c0.04,0.32 0.32,0.57 0.64,0.57l6.18 0c0.32,0 0.6,-0.25 0.63,-0.57l0.51 -4.84 0.17 0c0.33,0 0.6,-0.27 0.6,-0.61l0 -0.91c0,-0.33 -0.27,-0.61 -0.6,-0.61z"/>
 </g>
</svg>
