<?xml version="1.0" encoding="UTF-8"?>
<!DOCTYPE svg PUBLIC "-//W3C//DTD SVG 1.1//EN" "http://www.w3.org/Graphics/SVG/1.1/DTD/svg11.dtd">
<!-- Creator: CorelDRAW 2018 (64-Bit) -->
<svg xmlns="http://www.w3.org/2000/svg" xml:space="preserve" width="120px" height="124px" version="1.1" style="shape-rendering:geometricPrecision; text-rendering:geometricPrecision; image-rendering:optimizeQuality; fill-rule:evenodd; clip-rule:evenodd"
viewBox="0 0 17.24 17.87"
 xmlns:xlink="http://www.w3.org/1999/xlink">
 <defs>
  <style type="text/css">
   <![CDATA[
    .fil1 {fill:#3B8056}
    .fil0 {fill:white}
   ]]>
  </style>
 </defs>
 <g id="Содержимое_x0020_PowerClip">
  <metadata id="CorelCorpID_0Corel-Layer"/>
  <rect class="fil0" width="17.24" height="17.87" rx="0.06" ry="3.72"/>
  <path class="fil1" d="M7.48 12.58l-0.85 0c-0.11,0 -0.19,0.09 -0.19,0.19l0 0.28c0,0.1 0.08,0.19 0.19,0.19l0.04 0 0.15 1.49c0.01,0.1 0.1,0.17 0.2,0.17l1.9 0c0.1,0 0.19,-0.07 0.2,-0.17l0.15 -1.49 0.05 0c0.11,0 0.19,-0.09 0.19,-0.19l0 -0.28c0,-0.1 -0.08,-0.19 -0.19,-0.19l-0.96 0c-0.05,-3.59 -0.5,-2.4 1.73,-4.87 0.26,0.21 0.6,0.34 0.96,0.34 0.87,0 1.57,-0.71 1.57,-1.57 0,-0.63 -0.37,-1.17 -0.91,-1.42 -0.04,-0.78 -0.68,-1.4 -1.46,-1.4 -0.06,0 -0.12,0.01 -0.17,0.01 -0.41,-0.56 -1.07,-0.92 -1.82,-0.92 -0.78,0 -1.47,0.4 -1.87,1 -0.67,0.06 -1.2,0.62 -1.2,1.31 0,0.27 0.08,0.52 0.22,0.73 -0.47,0.2 -0.79,0.66 -0.79,1.2 0,0.73 0.58,1.31 1.31,1.31 0.26,0 0.5,-0.07 0.7,-0.21 1.3,2.01 0.9,1.71 0.85,4.49zm-0.24 -5.58c0.13,0.07 0.28,0.13 0.44,0.17l0 0.96 -0.5 -0.76c0.03,-0.12 0.05,-0.24 0.06,-0.37zm1.29 0.23c0.37,-0.04 0.71,-0.17 1,-0.37 0.01,0.05 0.03,0.09 0.05,0.14l-1.05 1.16 0 -0.93z"/>
 </g>
</svg>
