<?xml version="1.0" encoding="UTF-8"?>
<!DOCTYPE svg PUBLIC "-//W3C//DTD SVG 1.1//EN" "http://www.w3.org/Graphics/SVG/1.1/DTD/svg11.dtd">
<!-- Creator: CorelDRAW 2018 (64-Bit) -->
<svg xmlns="http://www.w3.org/2000/svg" xml:space="preserve" width="63px" height="92px" version="1.1" style="shape-rendering:geometricPrecision; text-rendering:geometricPrecision; image-rendering:optimizeQuality; fill-rule:evenodd; clip-rule:evenodd"
viewBox="0 0 4.2 6.13"
 xmlns:xlink="http://www.w3.org/1999/xlink">
 <defs>
  <style type="text/css">
   <![CDATA[
    .fil0 {fill:#6CA081}
   ]]>
  </style>
 </defs>
 <g id="Layer_x0020_1">
  <metadata id="CorelCorpID_0Corel-Layer"/>
  <path class="fil0" d="M4.2 2.16c0,0.31 -0.17,0.59 -0.44,0.72 -0.03,0.18 -0.13,0.34 -0.26,0.45 -0.14,0.13 -0.32,0.2 -0.51,0.2 -0.13,0 -0.25,-0.03 -0.35,-0.09 -0.13,0.09 -0.28,0.14 -0.43,0.17l0 -1 0.42 -0.36c0.06,-0.05 0.06,-0.13 0.02,-0.19 -0.05,-0.05 -0.13,-0.06 -0.19,-0.01l-0.25 0.21 0 -0.94c0,-0.07 -0.06,-0.13 -0.13,-0.13 -0.08,0 -0.13,0.06 -0.13,0.13l0 0.64 -0.19 -0.15c-0.06,-0.05 -0.14,-0.04 -0.19,0.02 -0.04,0.05 -0.03,0.14 0.02,0.18l0.36 0.28 0 0.41 -0.4 -0.33c-0.06,-0.05 -0.14,-0.04 -0.19,0.02 -0.04,0.05 -0.04,0.13 0.02,0.18l0.57 0.48 0 0.56c-0.25,-0.03 -0.47,-0.15 -0.64,-0.35l-0.07 0.02c-0.23,0.07 -0.48,0.03 -0.68,-0.11 -0.19,-0.15 -0.31,-0.37 -0.32,-0.61l0 0c-0.15,-0.15 -0.24,-0.36 -0.24,-0.58 0,-0.25 0.11,-0.48 0.31,-0.63 0,-0.43 0.34,-0.78 0.76,-0.79 0.11,-0.33 0.41,-0.56 0.76,-0.56 0.24,0 0.47,0.11 0.62,0.31 0.09,-0.04 0.19,-0.06 0.29,-0.06 0.31,0 0.58,0.17 0.71,0.45 0.17,0.03 0.33,0.13 0.44,0.26 0.13,0.15 0.19,0.33 0.19,0.52 0,0.07 -0.01,0.15 -0.03,0.22 0.1,0.13 0.15,0.29 0.15,0.46z"/>
  <path class="fil0" d="M1.84 5.21l-0.3 0c-0.04,0 -0.07,0.04 -0.07,0.08l0 0.11c0,0.04 0.03,0.07 0.07,0.07l0.02 0 0.06 0.59c0.01,0.04 0.04,0.07 0.08,0.07l0.75 0c0.04,0 0.08,-0.03 0.08,-0.07l0.06 -0.59 0.02 0c0.04,0 0.08,-0.03 0.08,-0.07l0 -0.11c0,-0.04 -0.04,-0.08 -0.08,-0.08l-0.34 0 -0.04 0 0 -1.3c0,-0.05 -0.07,-0.09 -0.12,-0.09l-0.06 0c-0.05,0 -0.13,0.04 -0.13,0.09l0 1.3 -0.08 0z"/>
 </g>
</svg>
