<?xml version="1.0" encoding="UTF-8"?>
<!DOCTYPE svg PUBLIC "-//W3C//DTD SVG 1.1//EN" "http://www.w3.org/Graphics/SVG/1.1/DTD/svg11.dtd">
<!-- Creator: CorelDRAW 2018 (64-Bit) -->
<svg xmlns="http://www.w3.org/2000/svg" xml:space="preserve" width="168px" height="174px" version="1.1" style="shape-rendering:geometricPrecision; text-rendering:geometricPrecision; image-rendering:optimizeQuality; fill-rule:evenodd; clip-rule:evenodd"
viewBox="0 0 33.87 35.12"
 xmlns:xlink="http://www.w3.org/1999/xlink">
 <defs>
  <style type="text/css">
   <![CDATA[
    .fil1 {fill:#3B8056}
    .fil0 {fill:white}
   ]]>
  </style>
 </defs>
 <g id="Содержимое_x0020_PowerClip">
  <metadata id="CorelCorpID_0Corel-Layer"/>
  <rect class="fil0" width="33.87" height="35.12" rx="0.13" ry="7.32"/>
  <g id="_2209694188400">
   <path class="fil1" d="M18.83 24.86l-1.88 0 0 -0.85c1.5,-0.13 2.68,-1.39 2.68,-2.92 0,-0.13 -0.11,-0.24 -0.25,-0.24 -1.01,0 -1.9,0.51 -2.43,1.29l0 -1c1.5,-0.13 2.68,-1.38 2.68,-2.92 0,-0.13 -0.11,-0.24 -0.25,-0.24 -1.01,0 -1.9,0.51 -2.43,1.29l0 -2.64c0,-0.14 -0.11,-0.25 -0.25,-0.25 -0.13,0 -0.25,0.11 -0.25,0.25l0 0.74 -0.27 -0.26c-0.1,-0.09 -0.26,-0.09 -0.36,0.01 -0.09,0.11 -0.08,0.26 0.02,0.36l0.61 0.57 0 2.78c-0.44,-0.59 -1.16,-0.98 -1.96,-0.98 -0.13,0 -0.25,0.11 -0.25,0.25 0,1.27 0.98,2.32 2.21,2.44l0 2.32 -1.57 0c-0.01,0 -0.02,0 -0.02,0l3.99 0c-0.01,0 -0.02,0 -0.02,0l0 0zm0.29 -6.37c-0.12,1.13 -1.02,2.03 -2.16,2.15 0.13,-1.13 1.03,-2.03 2.16,-2.15zm0 2.87c-0.12,1.13 -1.02,2.03 -2.16,2.15 0.13,-1.13 1.03,-2.03 2.16,-2.15zm-4.36 -0.99c0.42,0.05 0.81,0.24 1.12,0.55 0.31,0.31 0.5,0.7 0.56,1.12 -0.87,-0.12 -1.56,-0.81 -1.68,-1.67z"/>
   <path class="fil1" d="M20.74 24.75c-3.23,0 -4.32,0 -7.6,0 -0.29,0 -0.53,0.24 -0.53,0.53l0 0.79c0,0.29 0.24,0.53 0.53,0.53l0.11 0 0.44 4.2c0.03,0.27 0.27,0.49 0.55,0.49l5.36 0c0.28,0 0.52,-0.22 0.55,-0.49l0.44 -4.2 0.15 0c0.29,0 0.52,-0.24 0.52,-0.53l0 -0.79c0,-0.29 -0.23,-0.53 -0.52,-0.53z"/>
  </g>
 </g>
</svg>
